#!OML:ASF I:\Actors\actors\Patient Classification 1\Patient 1\Session 1\Subject1.ASF
:FULLY-SPECIFIED
:DEGREES
300
root 1.01478 17.5699 8.59004 8.21919 -1.56248 -8.19392
lowerback -2.54499 1.38869 6.51859
upperback -7.93162 2.07392 2.05523
thorax -6.73342 0.699707 -1.5509
lowerneck -9.00818 -5.70443 -5.04561
upperneck 26.1924 -9.68421 9.21619
head 10.5693 -3.97804 2.9792
rclavicle -9.41742e-015 3.96575e-014
rhumerus 28.7536 78.9185 -77.5248
rradius 117.031
rwrist -24.8441
rhand 20.6224 -41.8175
rfingers 7.12502
rthumb 45.1144 -65.2719
lclavicle -9.41742e-015 3.96575e-014
lhumerus -138.966 -79.7333 234.878
lradius 79.4605
lwrist 57.8711
lhand 66.1145 -15.4196
lfingers 7.12502
lthumb 74.748 -70.3029
rfemur -5.25374 22.1968 24.2771
rtibia 5.68106
rfoot -13.3374 -20.2798
rtoes 1.49106
lfemur 3.20942 -37.996 -11.5298
ltibia -2.66534
lfoot -17.7909 46.4287
ltoes 7.28815
301
root 1.01312 17.5655 8.58262 8.1113 -1.31007 -8.1284
lowerback -2.33516 1.31871 6.40965
upperback -7.91859 1.99951 2.0966
thorax -6.84904 0.668131 -1.45019
lowerneck -9.39943 -5.75696 -4.60515
upperneck 26.1488 -9.69439 8.7184
head 10.5801 -3.98201 2.71209
rclavicle 1.64494e-014 3.27995e-015
rhumerus 19.4941 79.077 -85.3897
rradius 115.908
rwrist -24.706
rhand 21.2765 -40.1937
rfingers 7.12502
rthumb 45.7223 -63.4029
lclavicle 1.64494e-014 3.27995e-015
lhumerus -136.831 -80.1069 232.896
lradius 79.3346
lwrist 57.139
lhand 65.9505 -15.818
lfingers 7.12502
lthumb 74.7753 -70.1077
rfemur -5.15717 22.2508 24.2425
rtibia 5.68875
rfoot -13.4366 -20.5672
rtoes 1.74576
lfemur 3.05599 -37.8939 -11.4677
ltibia -2.54728
lfoot -17.5429 46.0885
ltoes 7.13704
302
root 1.01101 17.5565 8.56306 7.88815 -1.17766 -7.77454
lowerback -1.54381 1.26791 5.95756
upperback -8.06257 1.99814 2.08115
thorax -7.47137 0.676451 -1.23511
lowerneck -9.43414 -5.80936 -3.87826
upperneck 25.7387 -9.65148 7.92324
head 10.349 -3.98899 2.30607
rclavicle 1.28962e-014 -1.89839e-014
rhumerus 10.7497 79.0165 -92.5569
rradius 114.624
rwrist -23.8069
rhand 22.3964 -38.9376
rfingers 7.12502
rthumb 46.7606 -61.7086
lclavicle 1.28962e-014 -1.89839e-014
lhumerus -132.557 -80.2478 228.504
lradius 79.3328
lwrist 57.0702
lhand 66.3724 -15.2356
lfingers 7.12502
lthumb 74.7017 -71.0478
rfemur -5.10809 22.4788 23.8572
rtibia 5.87924
rfoot -13.6093 -20.9345
rtoes 1.68932
lfemur 3.02582 -37.9701 -11.8296
ltibia -2.3901
lfoot -17.434 45.9378
ltoes 7.03968
303
root 1.01 17.5464 8.57154 7.75097 -0.741759 -7.74002
lowerback -1.70313 1.1917 6.11025
upperback -7.95104 1.87557 1.98972
thorax -7.25935 0.609974 -1.40655
lowerneck -9.46768 -5.83748 -3.60911
upperneck 25.3006 -9.68974 7.88808
head 10.1826 -3.99568 2.23977
rclavicle 8.44835e-016 3.11098e-014
rhumerus 8.67705 79.0285 -93.3428
rradius 113.312
rwrist -23.104
rhand 23.0439 -38.2459
rfingers 7.12502
rthumb 47.3594 -60.7522
lclavicle 8.44835e-016 3.11098e-014
lhumerus -129.568 -80.1692 225.141
lradius 79.2251
lwrist 57.3078
lhand 66.7067 -14.3166
lfingers 7.12502
lthumb 74.6356 -71.3241
rfemur -4.80259 22.402 23.9405
rtibia 5.76091
rfoot -13.7081 -21.2845
rtoes 1.62247
lfemur 3.15102 -38.1602 -11.9342
ltibia -2.43281
lfoot -16.9885 45.7645
ltoes 6.24649
304
root 1.00724 17.5408 8.58025 7.69671 -0.327403 -7.91081
lowerback -2.02806 1.05157 6.41786
upperback -7.84546 1.66116 1.99156
thorax -6.96789 0.494225 -1.55993
lowerneck -9.6492 -5.77717 -3.62065
upperneck 25.3171 -9.64099 8.03722
head 10.2297 -3.95204 2.29533
rclavicle 1.21756e-014 -1.87852e-014
rhumerus 11.2955 79.5244 -89.7356
rradius 111.969
rwrist -22.8609
rhand 22.9985 -37.2488
rfingers 7.12502
rthumb 47.3175 -59.7738
lclavicle 1.21756e-014 -1.87852e-014
lhumerus -126.653 -79.8989 221.77
lradius 79.0072
lwrist 57.5524
lhand 66.5195 -14.1932
lfingers 7.12502
lthumb 74.6734 -70.5326
rfemur -4.61478 22.3593 24.2469
rtibia 5.68491
rfoot -13.7652 -21.6008
rtoes 1.67957
lfemur 3.18971 -38.295 -11.7155
ltibia -2.53537
lfoot -16.5095 45.6176
ltoes 5.556
305
root 1.0036 17.5399 8.59285 7.72766 0.0198542 -8.18516
lowerback -2.37412 0.844298 6.66284
upperback -7.83566 1.36552 2.15592
thorax -6.78272 0.343919 -1.5075
lowerneck -9.79183 -5.64092 -3.42775
upperneck 25.5296 -9.42916 7.756
head 10.2946 -3.8572 2.18804
rclavicle 7.10655e-015 -1.21259e-014
rhumerus 17.5183 80.3027 -82.8137
rradius 111.381
rwrist -23.6834
rhand 22.9906 -36.7857
rfingers 7.12502
rthumb 47.3102 -59.3141
lclavicle 7.10655e-015 -1.21259e-014
lhumerus -123.352 -79.5351 218.106
lradius 78.7358
lwrist 58.0846
lhand 66.322 -14.2927
lfingers 7.12502
lthumb 74.7111 -69.9238
rfemur -4.51465 22.3173 24.6567
rtibia 5.6358
rfoot -13.8843 -21.8162
rtoes 1.86057
lfemur 3.24154 -38.4773 -11.3696
ltibia -2.74295
lfoot -16.1672 45.5972
ltoes 5.20747
306
root 0.999799 17.5393 8.59698 7.69537 -0.0536178 -8.07772
lowerback -2.55842 0.725934 6.59805
upperback -7.74994 1.18261 2.14131
thorax -6.5968 0.263066 -1.47916
lowerneck -9.86169 -5.47283 -3.17895
upperneck 25.5913 -9.21628 7.649
head 10.2983 -3.74412 2.1342
rclavicle 4.22417e-015 -1.5207e-014
rhumerus 26.4554 80.6689 -74.1412
rradius 111.404
rwrist -24.1594
rhand 23.6941 -37.2413
rfingers 7.12502
rthumb 47.9596 -59.4729
lclavicle 4.22417e-015 -1.5207e-014
lhumerus -122.136 -79.3338 216.422
lradius 78.6185
lwrist 59.2063
lhand 66.2864 -13.4229
lfingers 7.12502
lthumb 74.7176 -68.9261
rfemur -4.47601 22.3861 24.567
rtibia 5.68484
rfoot -13.9526 -21.8321
rtoes 2.05875
lfemur 3.63307 -39.0251 -11.7444
ltibia -2.96019
lfoot -16.5567 46.1436
ltoes 5.79234
307
root 0.996279 17.5395 8.58804 7.59584 -0.464512 -7.72814
lowerback -2.33741 0.709488 6.28182
upperback -7.71254 1.16616 2.03007
thorax -6.68251 0.267885 -1.42257
lowerneck -9.8066 -5.34946 -2.9516
upperneck 25.5937 -9.0848 7.63779
head 10.2684 -3.66538 2.1104
rclavicle -4.02539e-015 1.78906e-014
rhumerus 35.7916 80.5102 -65.3968
rradius 111.841
rwrist -23.7778
rhand 24.8312 -36.9038
rfingers 7.12502
rthumb 49.0061 -58.6332
lclavicle -4.02539e-015 1.78906e-014
lhumerus -122.622 -79.2058 216.399
lradius 78.6183
lwrist 60.4838
lhand 65.5985 -12.7327
lfingers 7.12502
lthumb 74.8283 -65.7414
rfemur -4.54318 22.591 24.1409
rtibia 5.87556
rfoot -13.9492 -21.6875
rtoes 2.00874
lfemur 4.15895 -39.6597 -12.5274
ltibia -3.10246
lfoot -17.3075 46.9852
ltoes 6.71441
308
root 0.994074 17.5415 8.58016 7.55298 -0.817335 -7.58334
lowerback -2.18318 0.775123 6.271
upperback -7.72621 1.25932 1.88453
thorax -6.77618 0.306352 -1.57397
lowerneck -9.51688 -5.31663 -2.65155
upperneck 25.5179 -9.07923 7.58838
head 10.1673 -3.65103 2.0508
rclavicle -6.53505e-015 -4.90998e-014
rhumerus 44.1246 79.6988 -58.1962
rradius 112.502
rwrist -23.2248
rhand 25.3038 -37.0536
rfingers 7.12502
rthumb 49.4399 -58.5655
lclavicle -6.53505e-015 -4.90998e-014
lhumerus -124.621 -79.0779 217.788
lradius 78.7347
lwrist 61.4261
lhand 64.807 -12.8827
lfingers 7.12502
lthumb 74.9186 -62.982
rfemur -4.64972 22.7773 23.9493
rtibia 6.03857
rfoot -13.9195 -21.5238
rtoes 2.02508
lfemur 4.41492 -39.8375 -12.8751
ltibia -3.16404
lfoot -17.756 47.3976
ltoes 7.28882
309
root 0.99288 17.5441 8.57472 7.59453 -1.09774 -7.55632
lowerback -2.14145 0.870763 6.36105
upperback -7.79525 1.39061 1.78632
thorax -6.86262 0.358477 -1.73188
lowerneck -9.33624 -5.28428 -2.91019
upperneck 25.744 -9.13242 8.05436
head 10.2559 -3.64807 2.25906
rclavicle 1.2424e-015 1.98785e-016
rhumerus 49.3241 78.6648 -54.246
rradius 113.35
rwrist -23.0536
rhand 25.1299 -37.6045
rfingers 7.12502
rthumb 49.2804 -59.197
lclavicle 1.2424e-015 1.98785e-016
lhumerus -126.373 -79.0565 218.985
lradius 79.0641
lwrist 61.7377
lhand 64.6359 -13.2814
lfingers 7.12502
lthumb 74.9329 -62.7477
rfemur -4.79284 22.8883 23.8821
rtibia 6.12708
rfoot -13.8142 -21.3834
rtoes 2.06569
lfemur 4.41721 -39.6877 -12.9098
ltibia -3.14596
lfoot -18.0869 47.4486
ltoes 7.80397
